<svg width="375" height="71" viewBox="0 0 375 71" fill="none" xmlns="http://www.w3.org/2000/svg">
<path d="M13.824 70.272C8.96 70.272 6.528 67.616 6.528 62.304V23.328H0V22.464H6.528V14.88C8.256 14.88 9.632 14.336 10.656 13.248C11.744 12.096 12.288 10.72 12.288 9.12V9.024H12.864V22.464H22.56V23.328H12.864V63.36C12.864 66.688 14.048 68.352 16.416 68.352C17.44 68.352 18.496 67.904 19.584 67.008C20.672 66.112 21.568 64.992 22.272 63.648L22.848 63.936C22.016 65.664 20.8 67.168 19.2 68.448C17.6 69.664 15.808 70.272 13.824 70.272Z" fill="#0B0B0B"/>
<path d="M64.3485 28.416V64.032C64.3485 66.08 64.6365 67.392 65.2125 67.968C65.8525 68.544 67.2925 68.832 69.5325 68.832H69.6285V69.504H68.2845C67.5165 69.504 66.4285 69.472 65.0205 69.408C63.6125 69.28 62.3325 69.216 61.1805 69.216C60.0285 69.216 58.7485 69.28 57.3405 69.408C55.9325 69.472 54.8445 69.504 54.0765 69.504H52.7325V68.832H52.8285C55.0685 68.832 56.4765 68.544 57.0525 67.968C57.6925 67.392 58.0125 66.08 58.0125 64.032V28.128C58.0125 25.056 56.8925 23.52 54.6525 23.52C53.3725 23.52 50.6525 24.288 46.4925 25.824L36.0285 29.856V64.032C36.0285 66.08 36.3165 67.392 36.8925 67.968C37.5325 68.544 38.9725 68.832 41.2125 68.832H41.3085V69.504H39.9645C39.2605 69.504 38.1725 69.472 36.7005 69.408C35.2285 69.28 33.9485 69.216 32.8605 69.216C31.7725 69.216 30.4925 69.28 29.0205 69.408C27.5485 69.472 26.4605 69.504 25.7565 69.504H24.4125V68.832H24.5085C26.7485 68.832 28.1565 68.544 28.7325 67.968C29.3725 67.392 29.6925 66.08 29.6925 64.032V9.504C29.6925 7.456 29.3725 6.176 28.7325 5.664C28.1565 5.088 26.7485 4.8 24.5085 4.8H24.4125V4.128H24.9885C27.1005 4.128 29.2765 3.712 31.5165 2.88C33.7565 2.048 35.0685 1.088 35.4525 0H36.0285V28.992L46.2045 25.056C51.9005 22.816 55.9645 21.696 58.3965 21.696C62.3645 21.696 64.3485 23.936 64.3485 28.416Z" fill="#0B0B0B"/>
<path d="M89.9865 69.504H88.6425C87.9385 69.504 86.8505 69.472 85.3785 69.408C83.9065 69.28 82.6265 69.216 81.5385 69.216C80.4505 69.216 79.1705 69.28 77.6985 69.408C76.2265 69.472 75.1385 69.504 74.4345 69.504H73.0905V68.832H73.1865C75.4265 68.832 76.8345 68.544 77.4105 67.968C78.0505 67.392 78.3705 66.08 78.3705 64.032V31.2C78.3705 29.152 78.0505 27.872 77.4105 27.36C76.8345 26.784 75.4265 26.496 73.1865 26.496H73.0905V25.824H73.6665C75.7785 25.824 77.9545 25.408 80.1945 24.576C82.4345 23.744 83.7465 22.784 84.1305 21.696H84.7065V64.032C84.7065 66.08 84.9945 67.392 85.5705 67.968C86.2105 68.544 87.6505 68.832 89.8905 68.832H89.9865V69.504ZM81.5385 12.672C80.2585 12.672 79.1705 12.256 78.2745 11.424C77.3785 10.528 76.9305 9.408 76.9305 8.064C76.9305 6.72 77.3785 5.6 78.2745 4.704C79.1705 3.808 80.2585 3.36 81.5385 3.36C82.8185 3.36 83.9065 3.808 84.8025 4.704C85.7625 5.6 86.2425 6.72 86.2425 8.064C86.2425 9.408 85.7945 10.528 84.8985 11.424C84.0025 12.256 82.8825 12.672 81.5385 12.672Z" fill="#0B0B0B"/>
<path d="M112.73 69.504H110.522C109.562 69.504 108.217 69.472 106.49 69.408C104.762 69.28 103.257 69.216 101.978 69.216C100.826 69.216 99.5455 69.28 98.1375 69.408C96.7295 69.472 95.6415 69.504 94.8735 69.504H93.5295V68.832H93.6255C95.8655 68.832 97.2735 68.544 97.8495 67.968C98.4895 67.392 98.8095 66.08 98.8095 64.032V31.2C98.8095 29.152 98.4895 27.872 97.8495 27.36C97.2735 26.784 95.8655 26.496 93.6255 26.496H93.5295V25.824H94.1055C96.2175 25.824 98.3935 25.408 100.634 24.576C102.874 23.744 104.186 22.784 104.57 21.696H105.146V32.736C107.385 29.344 109.754 26.592 112.25 24.48C114.49 22.624 116.922 21.696 119.546 21.696C122.105 21.696 123.386 22.528 123.386 24.192C123.386 25.92 122.138 26.784 119.642 26.784C119.066 26.784 118.074 26.656 116.666 26.4C115.322 26.08 114.298 25.92 113.594 25.92C111.482 25.92 108.665 28.608 105.146 33.984V64.032C105.146 66.016 105.594 67.328 106.49 67.968C107.386 68.544 109.018 68.832 111.386 68.832H112.73V69.504Z" fill="#0B0B0B"/>
<path d="M141.583 70.272C139.471 70.272 137.423 69.856 135.439 69.024C133.52 68.192 131.664 66.88 129.872 65.088C128.079 63.296 126.639 60.768 125.551 57.504C124.464 54.176 123.92 50.336 123.92 45.984C123.92 41.632 124.464 37.824 125.551 34.56C126.639 31.232 128.079 28.672 129.872 26.88C131.664 25.088 133.52 23.776 135.439 22.944C137.423 22.112 139.471 21.696 141.583 21.696C146.576 21.696 151.44 23.744 156.176 27.84V9.504C156.176 7.456 155.855 6.176 155.215 5.664C154.639 5.088 153.232 4.8 150.992 4.8H150.895V4.128H151.471C153.583 4.128 155.759 3.712 157.999 2.88C160.24 2.048 161.551 1.088 161.936 0H162.512V64.032C162.512 66.08 162.799 67.392 163.376 67.968C164.016 68.544 165.455 68.832 167.695 68.832H167.792V69.504H166.447C165.679 69.504 164.559 69.472 163.087 69.408C161.679 69.344 160.432 69.312 159.344 69.312C158.768 69.312 158.128 69.344 157.424 69.408C156.784 69.472 156.368 69.504 156.176 69.504V64.128C151.44 68.224 146.576 70.272 141.583 70.272ZM141.583 69.408C146.576 69.408 151.44 67.264 156.176 62.976V28.992C151.44 24.704 146.576 22.56 141.583 22.56C139.983 22.56 138.608 22.848 137.456 23.424C136.368 24 135.312 25.088 134.288 26.688C133.264 28.288 132.495 30.688 131.984 33.888C131.472 37.088 131.215 41.12 131.215 45.984C131.215 50.848 131.472 54.88 131.984 58.08C132.495 61.28 133.264 63.68 134.288 65.28C135.312 66.88 136.368 67.968 137.456 68.544C138.608 69.12 139.983 69.408 141.583 69.408Z" fill="#0B0B0B"/>
<path d="M207.967 11.04C207.135 11.872 206.079 12.288 204.799 12.288C203.519 12.288 202.463 11.872 201.631 11.04C200.799 10.208 200.383 9.152 200.383 7.872C200.383 6.592 200.799 5.536 201.631 4.704C202.463 3.808 203.519 3.36 204.799 3.36C206.079 3.36 207.135 3.808 207.967 4.704C208.863 5.536 209.311 6.592 209.311 7.872C209.311 9.152 208.863 10.208 207.967 11.04ZM198.655 35.52L187.999 57.504C185.823 61.856 184.735 64.832 184.735 66.432C184.735 67.584 185.279 68.16 186.367 68.16C188.223 68.16 191.839 64.608 197.215 57.504L197.791 57.888C191.711 66.144 186.975 70.272 183.583 70.272C182.111 70.272 180.991 69.856 180.223 69.024C179.455 68.128 179.071 67.072 179.071 65.856C179.071 63.808 180.095 60.672 182.143 56.448L192.799 34.464C194.975 30.112 196.063 27.136 196.063 25.536C196.063 24.384 195.519 23.808 194.431 23.808C192.575 23.808 188.959 27.36 183.583 34.464L183.007 34.08C189.087 25.824 193.823 21.696 197.215 21.696C198.687 21.696 199.807 22.144 200.575 23.04C201.343 23.872 201.727 24.896 201.727 26.112C201.727 28.16 200.703 31.296 198.655 35.52Z" fill="#0B0B0B"/>
<path d="M231.074 70.272C229.602 70.272 228.482 69.856 227.714 69.024C226.945 68.128 226.561 67.072 226.561 65.856C226.561 63.872 227.585 60.768 229.633 56.544L239.809 35.712C242.369 30.464 243.65 27.2 243.65 25.92C243.65 24.512 243.042 23.808 241.826 23.808C240.93 23.808 239.617 24.736 237.889 26.592C236.161 28.448 233.314 32.096 229.346 37.536L206.018 69.504C205.698 69.504 205.154 69.472 204.385 69.408C203.682 69.344 203.17 69.312 202.85 69.312C202.529 69.312 201.986 69.344 201.217 69.408C200.514 69.472 200.002 69.504 199.682 69.504L214.273 34.464C216.449 29.216 217.538 26.24 217.538 25.536C217.538 24.384 217.025 23.808 216.001 23.808C213.953 23.808 210.273 27.36 204.962 34.464L204.385 34.08C210.402 25.824 215.169 21.696 218.689 21.696C220.161 21.696 221.281 22.144 222.049 23.04C222.818 23.872 223.201 24.896 223.201 26.112C223.201 27.904 222.242 31.04 220.322 35.52L207.169 66.624L228.77 37.056C233.249 30.976 236.513 26.912 238.561 24.864C240.673 22.752 242.818 21.696 244.993 21.696C246.402 21.696 247.458 22.144 248.161 23.04C248.93 23.936 249.314 24.96 249.314 26.112C249.314 28.288 248.225 31.616 246.049 36.096L235.585 57.504C233.345 61.984 232.225 64.96 232.225 66.432C232.225 67.584 232.77 68.16 233.857 68.16C235.714 68.16 239.329 64.608 244.706 57.504L245.281 57.888C239.201 66.144 234.465 70.272 231.074 70.272Z" fill="#0B0B0B"/>
<path d="M284.949 28.8L292.149 9.408C292.661 8.128 292.917 7.2 292.917 6.624C292.917 5.408 291.765 4.8 289.461 4.8H286.197V4.128H287.637C289.877 4.128 291.637 4.096 292.917 4.032C294.261 3.904 295.829 3.52 297.621 2.88C299.477 2.24 300.821 1.312 301.653 0.0959988L302.133 0.288002L280.053 57.408C279.925 57.792 279.509 58.784 278.805 60.384C278.165 61.92 277.685 63.2 277.365 64.224C277.045 65.184 276.885 65.92 276.885 66.432C276.885 67.584 277.429 68.16 278.517 68.16C280.373 68.16 283.989 64.608 289.365 57.504L289.941 57.888C283.861 66.144 279.125 70.272 275.733 70.272C274.325 70.272 273.205 69.856 272.373 69.024C271.605 68.192 271.221 67.104 271.221 65.76C271.221 65.184 271.317 64.48 271.509 63.648C271.765 62.816 271.989 62.112 272.181 61.536C272.437 60.96 272.789 60.064 273.237 58.848C273.749 57.632 274.069 56.832 274.197 56.448L283.701 31.968L266.517 57.792C263.637 62.144 261.141 65.312 259.029 67.296C256.981 69.28 254.901 70.272 252.789 70.272C251.189 70.272 249.813 69.76 248.661 68.736C247.573 67.712 247.029 66.112 247.029 63.936C247.029 61.184 247.797 57.472 249.333 52.8C250.933 48.128 252.949 43.488 255.381 38.88C257.877 34.208 260.853 30.176 264.309 26.784C267.829 23.392 271.253 21.696 274.581 21.696C278.101 21.696 281.557 24.064 284.949 28.8ZM255.765 68.16C257.749 68.16 261.141 64.544 265.941 57.312L284.469 29.568C283.381 27.712 282.037 26.112 280.437 24.768C278.837 23.36 277.269 22.656 275.733 22.656C272.533 22.656 269.109 25.536 265.461 31.296C261.877 37.056 258.997 43.232 256.821 49.824C254.709 56.352 253.653 61.28 253.653 64.608C253.653 66.976 254.357 68.16 255.765 68.16Z" fill="#0B0B0B"/>
<path d="M301.847 70.272C299.095 70.272 296.823 69.152 295.031 66.912C293.303 64.608 292.439 61.696 292.439 58.176C292.439 52.864 293.815 47.36 296.567 41.664C299.319 35.968 302.903 31.232 307.319 27.456C311.799 23.616 316.279 21.696 320.759 21.696C323.447 21.696 325.655 22.272 327.383 23.424C329.175 24.576 330.071 26.112 330.071 28.032C330.071 30.528 328.407 33.12 325.079 35.808C321.815 38.496 317.911 40.704 313.367 42.432C308.887 44.16 304.727 45.216 300.887 45.6C299.671 49.632 299.063 53.28 299.063 56.544C299.063 59.872 299.607 62.4 300.695 64.128C301.783 65.792 303.287 66.624 305.207 66.624C309.815 66.624 315.255 62.528 321.527 54.336L322.007 54.72C314.455 65.088 307.735 70.272 301.847 70.272ZM324.599 26.208C324.599 23.648 323.383 22.368 320.951 22.368C316.919 22.368 313.079 24.608 309.431 29.088C305.783 33.504 302.999 38.752 301.079 44.832C307.479 44.192 312.983 42.016 317.591 38.304C322.263 34.592 324.599 30.56 324.599 26.208Z" fill="#0B0B0B"/>
<path d="M348.641 70.272C346.593 70.272 345.025 69.664 343.937 68.448C342.849 67.232 342.305 65.632 342.305 63.648C342.305 61.92 342.721 58.88 343.553 54.528C341.441 59.2 338.753 63.008 335.489 65.952C332.289 68.832 329.377 70.272 326.753 70.272C324.769 70.272 323.233 69.824 322.145 68.928C321.057 67.968 320.513 66.688 320.513 65.088C320.513 63.744 320.801 62.496 321.377 61.344C321.953 60.128 322.945 58.88 324.353 57.6C325.697 56.32 326.785 55.36 327.617 54.72C328.449 54.08 329.889 53.056 331.937 51.648L332.225 52.128C329.921 53.856 328.193 55.936 327.041 58.368C325.889 60.736 325.313 62.848 325.313 64.704C325.313 67.52 326.337 68.928 328.385 68.928C330.817 68.928 333.825 66.848 337.409 62.688C341.057 58.528 343.617 53.536 345.089 47.712L346.049 43.968C346.625 41.664 347.201 38.816 347.777 35.424C348.353 32.032 348.641 29.76 348.641 28.608C348.641 25.472 347.553 23.904 345.377 23.904C343.713 23.904 341.665 25.344 339.233 28.224C336.801 31.04 334.561 34.24 332.513 37.824L331.937 37.44C337.825 27.008 343.329 21.792 348.449 21.792C350.241 21.792 351.649 22.4 352.673 23.616C353.761 24.832 354.305 26.496 354.305 28.608C354.305 31.04 353.889 34.016 353.057 37.536C355.169 32.736 357.665 28.928 360.545 26.112C363.489 23.232 366.305 21.792 368.993 21.792C370.657 21.792 372.001 22.208 373.025 23.04C374.049 23.872 374.561 25.056 374.561 26.592C374.561 28.896 373.729 30.944 372.065 32.736C370.401 34.528 367.873 36.64 364.481 39.072L364.193 38.592C366.113 37.248 367.585 35.488 368.609 33.312C369.633 31.136 370.145 29.216 370.145 27.552C370.145 24.608 369.089 23.136 366.977 23.136C364.865 23.136 362.145 25.248 358.817 29.472C355.489 33.696 353.057 38.624 351.521 44.256L350.561 47.808C350.113 49.6 349.601 52.32 349.025 55.968C348.449 59.616 348.161 62.08 348.161 63.36C348.161 66.56 349.345 68.16 351.713 68.16C353.633 68.16 355.809 66.72 358.241 63.84C360.673 60.896 362.881 57.76 364.865 54.432L365.441 54.816C364.353 56.672 363.393 58.24 362.561 59.52C361.729 60.736 360.513 62.304 358.913 64.224C357.377 66.144 355.713 67.648 353.921 68.736C352.193 69.76 350.433 70.272 348.641 70.272Z" fill="#0B0B0B"/>
</svg>
