<svg width="405" height="90" viewBox="0 0 405 90" fill="none" xmlns="http://www.w3.org/2000/svg">
<path d="M392.321 83.1477H398.471V6.85227H392.321V0H404.321V90H392.321V83.1477Z" fill="#E8E5E0"/>
<path d="M190.321 6.85227H184.171V83.1477H190.321V90H178.321V0H190.321V6.85227Z" fill="#E8E5E0"/>
<path d="M13.824 78.768C8.96 78.768 6.528 76.112 6.528 70.8V31.824H0V30.96H6.528V23.376C8.256 23.376 9.632 22.832 10.656 21.744C11.744 20.592 12.288 19.216 12.288 17.616V17.52H12.864V30.96H22.56V31.824H12.864V71.856C12.864 75.184 14.048 76.848 16.416 76.848C17.44 76.848 18.496 76.4 19.584 75.504C20.672 74.608 21.568 73.488 22.272 72.144L22.848 72.432C22.016 74.16 20.8 75.664 19.2 76.944C17.6 78.16 15.808 78.768 13.824 78.768Z" fill="#0B0B0B"/>
<path d="M64.3485 36.912V72.528C64.3485 74.576 64.6365 75.888 65.2125 76.464C65.8525 77.04 67.2925 77.328 69.5325 77.328H69.6285V78H68.2845C67.5165 78 66.4285 77.968 65.0205 77.904C63.6125 77.776 62.3325 77.712 61.1805 77.712C60.0285 77.712 58.7485 77.776 57.3405 77.904C55.9325 77.968 54.8445 78 54.0765 78H52.7325V77.328H52.8285C55.0685 77.328 56.4765 77.04 57.0525 76.464C57.6925 75.888 58.0125 74.576 58.0125 72.528V36.624C58.0125 33.552 56.8925 32.016 54.6525 32.016C53.3725 32.016 50.6525 32.784 46.4925 34.32L36.0285 38.352V72.528C36.0285 74.576 36.3165 75.888 36.8925 76.464C37.5325 77.04 38.9725 77.328 41.2125 77.328H41.3085V78H39.9645C39.2605 78 38.1725 77.968 36.7005 77.904C35.2285 77.776 33.9485 77.712 32.8605 77.712C31.7725 77.712 30.4925 77.776 29.0205 77.904C27.5485 77.968 26.4605 78 25.7565 78H24.4125V77.328H24.5085C26.7485 77.328 28.1565 77.04 28.7325 76.464C29.3725 75.888 29.6925 74.576 29.6925 72.528V18C29.6925 15.952 29.3725 14.672 28.7325 14.16C28.1565 13.584 26.7485 13.296 24.5085 13.296H24.4125V12.624H24.9885C27.1005 12.624 29.2765 12.208 31.5165 11.376C33.7565 10.544 35.0685 9.58397 35.4525 8.49597H36.0285V37.488L46.2045 33.552C51.9005 31.312 55.9645 30.192 58.3965 30.192C62.3645 30.192 64.3485 32.432 64.3485 36.912Z" fill="#0B0B0B"/>
<path d="M89.9865 78H88.6425C87.9385 78 86.8505 77.968 85.3785 77.904C83.9065 77.776 82.6265 77.712 81.5385 77.712C80.4505 77.712 79.1705 77.776 77.6985 77.904C76.2265 77.968 75.1385 78 74.4345 78H73.0905V77.328H73.1865C75.4265 77.328 76.8345 77.04 77.4105 76.464C78.0505 75.888 78.3705 74.576 78.3705 72.528V39.696C78.3705 37.648 78.0505 36.368 77.4105 35.856C76.8345 35.28 75.4265 34.992 73.1865 34.992H73.0905V34.32H73.6665C75.7785 34.32 77.9545 33.904 80.1945 33.072C82.4345 32.24 83.7465 31.28 84.1305 30.192H84.7065V72.528C84.7065 74.576 84.9945 75.888 85.5705 76.464C86.2105 77.04 87.6505 77.328 89.8905 77.328H89.9865V78ZM81.5385 21.168C80.2585 21.168 79.1705 20.752 78.2745 19.92C77.3785 19.024 76.9305 17.904 76.9305 16.56C76.9305 15.216 77.3785 14.096 78.2745 13.2C79.1705 12.304 80.2585 11.856 81.5385 11.856C82.8185 11.856 83.9065 12.304 84.8025 13.2C85.7625 14.096 86.2425 15.216 86.2425 16.56C86.2425 17.904 85.7945 19.024 84.8985 19.92C84.0025 20.752 82.8825 21.168 81.5385 21.168Z" fill="#0B0B0B"/>
<path d="M112.73 78H110.522C109.562 78 108.218 77.968 106.49 77.904C104.762 77.776 103.258 77.712 101.978 77.712C100.826 77.712 99.5455 77.776 98.1375 77.904C96.7295 77.968 95.6415 78 94.8735 78H93.5295V77.328H93.6255C95.8655 77.328 97.2735 77.04 97.8495 76.464C98.4895 75.888 98.8095 74.576 98.8095 72.528V39.696C98.8095 37.648 98.4895 36.368 97.8495 35.856C97.2735 35.28 95.8655 34.992 93.6255 34.992H93.5295V34.32H94.1055C96.2175 34.32 98.3935 33.904 100.634 33.072C102.874 32.24 104.186 31.28 104.57 30.192H105.146V41.232C107.386 37.84 109.754 35.088 112.25 32.976C114.49 31.12 116.922 30.192 119.546 30.192C122.106 30.192 123.386 31.024 123.386 32.688C123.386 34.416 122.138 35.28 119.642 35.28C119.066 35.28 118.074 35.152 116.666 34.896C115.322 34.576 114.298 34.416 113.594 34.416C111.482 34.416 108.666 37.104 105.146 42.48V72.528C105.146 74.512 105.594 75.824 106.49 76.464C107.386 77.04 109.018 77.328 111.386 77.328H112.73V78Z" fill="#0B0B0B"/>
<path d="M141.583 78.768C139.471 78.768 137.423 78.352 135.439 77.52C133.519 76.688 131.664 75.376 129.872 73.584C128.08 71.792 126.639 69.264 125.551 66C124.463 62.672 123.92 58.832 123.92 54.48C123.92 50.128 124.463 46.32 125.551 43.056C126.639 39.728 128.08 37.168 129.872 35.376C131.664 33.584 133.519 32.272 135.439 31.44C137.423 30.608 139.471 30.192 141.583 30.192C146.575 30.192 151.44 32.24 156.176 36.336V18C156.176 15.952 155.855 14.672 155.215 14.16C154.639 13.584 153.232 13.296 150.992 13.296H150.895V12.624H151.471C153.583 12.624 155.759 12.208 157.999 11.376C160.239 10.544 161.552 9.58397 161.936 8.49597H162.512V72.528C162.512 74.576 162.8 75.888 163.376 76.464C164.016 77.04 165.455 77.328 167.695 77.328H167.792V78H166.447C165.679 78 164.559 77.968 163.087 77.904C161.679 77.84 160.432 77.808 159.344 77.808C158.768 77.808 158.128 77.84 157.424 77.904C156.784 77.968 156.368 78 156.176 78V72.624C151.44 76.72 146.575 78.768 141.583 78.768ZM141.583 77.904C146.575 77.904 151.44 75.76 156.176 71.472V37.488C151.44 33.2 146.575 31.056 141.583 31.056C139.983 31.056 138.608 31.344 137.456 31.92C136.368 32.496 135.312 33.584 134.288 35.184C133.264 36.784 132.496 39.184 131.984 42.384C131.472 45.584 131.215 49.616 131.215 54.48C131.215 59.344 131.472 63.376 131.984 66.576C132.496 69.776 133.264 72.176 134.288 73.776C135.312 75.376 136.368 76.464 137.456 77.04C138.608 77.616 139.983 77.904 141.583 77.904Z" fill="#0B0B0B"/>
<path d="M223.727 19.536C222.895 20.368 221.839 20.784 220.559 20.784C219.279 20.784 218.223 20.368 217.391 19.536C216.559 18.704 216.143 17.648 216.143 16.368C216.143 15.088 216.559 14.032 217.391 13.2C218.223 12.304 219.279 11.856 220.559 11.856C221.839 11.856 222.895 12.304 223.727 13.2C224.623 14.032 225.071 15.088 225.071 16.368C225.071 17.648 224.623 18.704 223.727 19.536ZM214.415 44.016L203.759 66C201.583 70.352 200.495 73.328 200.495 74.928C200.495 76.08 201.039 76.656 202.127 76.656C203.983 76.656 207.599 73.104 212.975 66L213.551 66.384C207.471 74.64 202.735 78.768 199.343 78.768C197.871 78.768 196.751 78.352 195.983 77.52C195.215 76.624 194.831 75.568 194.831 74.352C194.831 72.304 195.855 69.168 197.903 64.944L208.559 42.96C210.735 38.608 211.823 35.632 211.823 34.032C211.823 32.88 211.279 32.304 210.191 32.304C208.335 32.304 204.719 35.856 199.343 42.96L198.767 42.576C204.847 34.32 209.583 30.192 212.975 30.192C214.447 30.192 215.567 30.64 216.335 31.536C217.103 32.368 217.487 33.392 217.487 34.608C217.487 36.656 216.463 39.792 214.415 44.016Z" fill="#0B0B0B"/>
<path d="M246.833 78.768C245.361 78.768 244.241 78.352 243.473 77.52C242.705 76.624 242.321 75.568 242.321 74.352C242.321 72.368 243.345 69.264 245.393 65.04L255.569 44.208C258.129 38.96 259.409 35.696 259.409 34.416C259.409 33.008 258.802 32.304 257.586 32.304C256.69 32.304 255.377 33.232 253.649 35.088C251.921 36.944 249.073 40.592 245.105 46.032L221.777 78C221.457 78 220.913 77.968 220.145 77.904C219.441 77.84 218.929 77.808 218.609 77.808C218.289 77.808 217.745 77.84 216.977 77.904C216.273 77.968 215.761 78 215.441 78L230.033 42.96C232.209 37.712 233.298 34.736 233.298 34.032C233.298 32.88 232.785 32.304 231.761 32.304C229.713 32.304 226.033 35.856 220.721 42.96L220.145 42.576C226.161 34.32 230.929 30.192 234.449 30.192C235.921 30.192 237.041 30.64 237.809 31.536C238.577 32.368 238.961 33.392 238.961 34.608C238.961 36.4 238.001 39.536 236.081 44.016L222.929 75.12L244.529 45.552C249.009 39.472 252.273 35.408 254.321 33.36C256.433 31.248 258.577 30.192 260.753 30.192C262.161 30.192 263.218 30.64 263.922 31.536C264.69 32.432 265.073 33.456 265.073 34.608C265.073 36.784 263.986 40.112 261.81 44.592L251.345 66C249.105 70.48 247.985 73.456 247.985 74.928C247.985 76.08 248.529 76.656 249.617 76.656C251.473 76.656 255.09 73.104 260.466 66L261.042 66.384C254.962 74.64 250.225 78.768 246.833 78.768Z" fill="#0B0B0B"/>
<path d="M300.709 37.296L307.909 17.904C308.421 16.624 308.677 15.696 308.677 15.12C308.677 13.904 307.525 13.296 305.221 13.296H301.957V12.624H303.397C305.637 12.624 307.397 12.592 308.677 12.528C310.021 12.4 311.589 12.016 313.381 11.376C315.237 10.736 316.581 9.80797 317.413 8.59197L317.893 8.78397L295.813 65.904C295.685 66.288 295.269 67.28 294.565 68.88C293.925 70.416 293.445 71.696 293.125 72.72C292.805 73.68 292.645 74.416 292.645 74.928C292.645 76.08 293.189 76.656 294.277 76.656C296.133 76.656 299.749 73.104 305.125 66L305.701 66.384C299.621 74.64 294.885 78.768 291.493 78.768C290.085 78.768 288.965 78.352 288.133 77.52C287.365 76.688 286.981 75.6 286.981 74.256C286.981 73.68 287.077 72.976 287.269 72.144C287.525 71.312 287.749 70.608 287.941 70.032C288.197 69.456 288.549 68.56 288.997 67.344C289.509 66.128 289.829 65.328 289.957 64.944L299.461 40.464L282.277 66.288C279.397 70.64 276.901 73.808 274.789 75.792C272.741 77.776 270.661 78.768 268.549 78.768C266.949 78.768 265.573 78.256 264.421 77.232C263.333 76.208 262.789 74.608 262.789 72.432C262.789 69.68 263.557 65.968 265.093 61.296C266.693 56.624 268.709 51.984 271.141 47.376C273.637 42.704 276.613 38.672 280.069 35.28C283.589 31.888 287.013 30.192 290.341 30.192C293.861 30.192 297.317 32.56 300.709 37.296ZM271.525 76.656C273.509 76.656 276.901 73.04 281.701 65.808L300.229 38.064C299.141 36.208 297.797 34.608 296.197 33.264C294.597 31.856 293.029 31.152 291.493 31.152C288.293 31.152 284.869 34.032 281.221 39.792C277.637 45.552 274.757 51.728 272.581 58.32C270.469 64.848 269.413 69.776 269.413 73.104C269.413 75.472 270.117 76.656 271.525 76.656Z" fill="#0B0B0B"/>
<path d="M317.607 78.768C314.855 78.768 312.583 77.648 310.791 75.408C309.063 73.104 308.199 70.192 308.199 66.672C308.199 61.36 309.575 55.856 312.327 50.16C315.079 44.464 318.663 39.728 323.079 35.952C327.559 32.112 332.039 30.192 336.519 30.192C339.207 30.192 341.415 30.768 343.143 31.92C344.935 33.072 345.831 34.608 345.831 36.528C345.831 39.024 344.167 41.616 340.839 44.304C337.575 46.992 333.671 49.2 329.127 50.928C324.647 52.656 320.487 53.712 316.647 54.096C315.431 58.128 314.823 61.776 314.823 65.04C314.823 68.368 315.367 70.896 316.455 72.624C317.543 74.288 319.047 75.12 320.967 75.12C325.575 75.12 331.015 71.024 337.287 62.832L337.767 63.216C330.215 73.584 323.495 78.768 317.607 78.768ZM340.359 34.704C340.359 32.144 339.143 30.864 336.711 30.864C332.679 30.864 328.839 33.104 325.191 37.584C321.543 42 318.759 47.248 316.839 53.328C323.239 52.688 328.743 50.512 333.351 46.8C338.023 43.088 340.359 39.056 340.359 34.704Z" fill="#0B0B0B"/>
<path d="M364.401 78.768C362.353 78.768 360.785 78.16 359.697 76.944C358.609 75.728 358.065 74.128 358.065 72.144C358.065 70.416 358.481 67.376 359.313 63.024C357.201 67.696 354.513 71.504 351.249 74.448C348.049 77.328 345.137 78.768 342.513 78.768C340.529 78.768 338.993 78.32 337.905 77.424C336.817 76.464 336.273 75.184 336.273 73.584C336.273 72.24 336.561 70.992 337.137 69.84C337.713 68.624 338.705 67.376 340.113 66.096C341.457 64.816 342.545 63.856 343.377 63.216C344.209 62.576 345.649 61.552 347.697 60.144L347.985 60.624C345.681 62.352 343.953 64.432 342.801 66.864C341.649 69.232 341.073 71.344 341.073 73.2C341.073 76.016 342.097 77.424 344.145 77.424C346.577 77.424 349.585 75.344 353.169 71.184C356.817 67.024 359.377 62.032 360.849 56.208L361.809 52.464C362.385 50.16 362.961 47.312 363.537 43.92C364.113 40.528 364.401 38.256 364.401 37.104C364.401 33.968 363.313 32.4 361.137 32.4C359.473 32.4 357.425 33.84 354.993 36.72C352.561 39.536 350.321 42.736 348.273 46.32L347.697 45.936C353.585 35.504 359.089 30.288 364.209 30.288C366.001 30.288 367.409 30.896 368.433 32.112C369.521 33.328 370.065 34.992 370.065 37.104C370.065 39.536 369.649 42.512 368.817 46.032C370.929 41.232 373.425 37.424 376.305 34.608C379.249 31.728 382.065 30.288 384.753 30.288C386.417 30.288 387.761 30.704 388.785 31.536C389.809 32.368 390.321 33.552 390.321 35.088C390.321 37.392 389.489 39.44 387.825 41.232C386.161 43.024 383.633 45.136 380.241 47.568L379.953 47.088C381.873 45.744 383.345 43.984 384.369 41.808C385.393 39.632 385.905 37.712 385.905 36.048C385.905 33.104 384.849 31.632 382.737 31.632C380.625 31.632 377.905 33.744 374.577 37.968C371.249 42.192 368.817 47.12 367.281 52.752L366.321 56.304C365.873 58.096 365.361 60.816 364.785 64.464C364.209 68.112 363.921 70.576 363.921 71.856C363.921 75.056 365.105 76.656 367.473 76.656C369.393 76.656 371.569 75.216 374.001 72.336C376.433 69.392 378.641 66.256 380.625 62.928L381.201 63.312C380.113 65.168 379.153 66.736 378.321 68.016C377.489 69.232 376.273 70.8 374.673 72.72C373.137 74.64 371.473 76.144 369.681 77.232C367.953 78.256 366.193 78.768 364.401 78.768Z" fill="#0B0B0B"/>
</svg>
