<svg width="90" height="90" viewBox="0 0 90 90" fill="none" xmlns="http://www.w3.org/2000/svg">
<rect width="90" height="90" fill="#0100FF"/>
<path d="M33.52 72.76C29.4667 72.76 27.44 70.5467 27.44 66.12V33.64H22V32.92H27.44V26.6C28.88 26.6 30.0267 26.1467 30.88 25.24C31.7867 24.28 32.24 23.1333 32.24 21.8V21.72H32.72V32.92H40.8V33.64H32.72V67C32.72 69.7733 33.7067 71.16 35.68 71.16C36.5333 71.16 37.4133 70.7867 38.32 70.04C39.2267 69.2933 39.9733 68.36 40.56 67.24L41.04 67.48C40.3467 68.92 39.3333 70.1733 38 71.24C36.6667 72.2533 35.1733 72.76 33.52 72.76Z" fill="white"/>
<path d="M67.7838 23.4C67.0904 24.0933 66.2104 24.44 65.1437 24.44C64.0771 24.44 63.1971 24.0933 62.5037 23.4C61.8104 22.7067 61.4638 21.8267 61.4638 20.76C61.4638 19.6933 61.8104 18.8133 62.5037 18.12C63.1971 17.3733 64.0771 17 65.1437 17C66.2104 17 67.0904 17.3733 67.7838 18.12C68.5304 18.8133 68.9038 19.6933 68.9038 20.76C68.9038 21.8267 68.5304 22.7067 67.7838 23.4ZM60.0238 43.8L51.1438 62.12C49.3304 65.7467 48.4237 68.2267 48.4237 69.56C48.4237 70.52 48.8771 71 49.7838 71C51.3304 71 54.3437 68.04 58.8237 62.12L59.3038 62.44C54.2371 69.32 50.2904 72.76 47.4638 72.76C46.2371 72.76 45.3037 72.4133 44.6637 71.72C44.0237 70.9733 43.7038 70.0933 43.7038 69.08C43.7038 67.3733 44.5571 64.76 46.2638 61.24L55.1437 42.92C56.9571 39.2933 57.8638 36.8133 57.8638 35.48C57.8638 34.52 57.4104 34.04 56.5037 34.04C54.9571 34.04 51.9438 37 47.4638 42.92L46.9837 42.6C52.0504 35.72 55.9971 32.28 58.8237 32.28C60.0504 32.28 60.9838 32.6533 61.6238 33.4C62.2638 34.0933 62.5838 34.9467 62.5838 35.96C62.5838 37.6667 61.7304 40.28 60.0238 43.8Z" fill="white"/>
</svg>
